<svg width="104" height="64" viewBox="0 0 104 64" fill="none" xmlns="http://www.w3.org/2000/svg">
<rect x="16" y="18" width="72" height="8" rx="1" fill="#FFCACB"/>
<rect x="16" y="29" width="72" height="8" rx="1" fill="#FFCACB"/>
<rect x="16" y="40" width="72" height="8" rx="1" fill="#FFCACB"/>
<path d="M68.3511 12.1626C85.0925 13.565 92.3512 20.4959 93.8512 24.6626C97.3506 24.6626 100.351 24.1626 103.851 24.6626C103.851 14.1626 93.9537 3.46254 68.3511 0.662582C64.3512 0.162582 51.0514 -0.537418 29.8511 0.662582C1.85059 4.1626 0.351634 22.6626 0.351403 26.6626C0.351403 26.6626 -0.439253 27.4993 0.351403 40.1626C1.85131 54.1626 16.3513 62.6626 29.3511 63.6626H68.3511C100.769 61.6741 102.851 45.6626 103.851 34.1626H93.8512C91.3506 46.1626 87.8506 50.6626 68.3511 51.6626C61.0178 51.9959 42.9511 52.4626 29.3511 51.6626C9.35139 50.1626 10.8511 40.1626 11.3511 26.6626C11.7511 15.8626 23.8506 13.228 29.8511 12.1626C37.1275 11.0519 53.59 10.926 68.3511 12.1626Z" fill="#FFCACB"/>
</svg>
