<svg width="105" height="32" viewBox="0 0 105 32" fill="none" xmlns="http://www.w3.org/2000/svg">
<path d="M88.4446 13.8762H104.945C101.444 3.74265 76.4443 0.37615 71.4446 0.37615C59.4443 -0.127763 47.9443 -0.122998 32.9446 0.37615C11.9443 1.37695 0.944336 8.37615 0.444583 12.8762C0.444583 12.8762 -0.555729 12.8761 0.444583 18.8761C4.99004 31.3761 32.9446 31.3762 32.9446 31.3762C39.9563 31.6321 56.2336 31.5466 71.4446 30.3762C92.5821 28.7496 102.611 21.7095 104.945 17.3761H88.4446C87.4443 20.3761 52.4446 20.3761 52.4446 20.3761C52.4446 20.3761 13.9443 20.3762 13.9446 15.3762C13.9448 10.3762 41.2446 8.87615 52.4446 8.87615C63.2403 8.15441 87.4443 10.8762 88.4446 13.8762Z" fill="#FFCACB"/>
</svg>
