<svg aria-hidden="true" style="position: absolute; width: 0; height: 0; overflow: hidden;" version="1.1" xmlns="http://www.w3.org/2000/svg" xmlns:xlink="http://www.w3.org/1999/xlink">
<defs>

<!--Icone Hair 1-->
<symbol id="icon-stars" viewBox="0 0 16 15">
<path d="M7.04894 0.92705C7.3483 0.00573921 8.6517 0.00573969 8.95106 0.92705L10.0206 4.21885C10.1545 4.63087 10.5385 4.90983 10.9717 4.90983H14.4329C15.4016 4.90983 15.8044 6.14945 15.0207 6.71885L12.2205 8.75329C11.87 9.00793 11.7234 9.4593 11.8572 9.87132L12.9268 13.1631C13.2261 14.0844 12.1717 14.8506 11.388 14.2812L8.58778 12.2467C8.2373 11.9921 7.7627 11.9921 7.41221 12.2467L4.61204 14.2812C3.82833 14.8506 2.77385 14.0844 3.0732 13.1631L4.14277 9.87132C4.27665 9.4593 4.12999 9.00793 3.7795 8.75329L0.979333 6.71885C0.195619 6.14945 0.598395 4.90983 1.56712 4.90983H5.02832C5.46154 4.90983 5.8455 4.63087 5.97937 4.21885L7.04894 0.92705Z"/>
</symbol>

<!-- Logo google-->
<symbol id="logo-google" viewBox="0 0 272 92">
<path fill="#EA4335" d="M115.75 47.18c0 12.77-9.99 22.18-22.25 22.18s-22.25-9.41-22.25-22.18C71.25 34.32 81.24 25 93.5 25s22.25 9.32 22.25 22.18zm-9.74 0c0-7.98-5.79-13.44-12.51-13.44S80.99 39.2 80.99 47.18c0 7.9 5.79 13.44 12.51 13.44s12.51-5.55 12.51-13.44z"/><path fill="#FBBC05" d="M163.75 47.18c0 12.77-9.99 22.18-22.25 22.18s-22.25-9.41-22.25-22.18c0-12.85 9.99-22.18 22.25-22.18s22.25 9.32 22.25 22.18zm-9.74 0c0-7.98-5.79-13.44-12.51-13.44s-12.51 5.46-12.51 13.44c0 7.9 5.79 13.44 12.51 13.44s12.51-5.55 12.51-13.44z"/><path fill="#4285F4" d="M209.75 26.34v39.82c0 16.38-9.66 23.07-21.08 23.07-10.75 0-17.22-7.19-19.66-13.07l8.48-3.53c1.51 3.61 5.21 7.87 11.17 7.87 7.31 0 11.84-4.51 11.84-13v-3.19h-.34c-2.18 2.69-6.38 5.04-11.68 5.04-11.09 0-21.25-9.66-21.25-22.09 0-12.52 10.16-22.26 21.25-22.26 5.29 0 9.49 2.35 11.68 4.96h.34v-3.61h9.25zm-8.56 20.92c0-7.81-5.21-13.52-11.84-13.52-6.72 0-12.35 5.71-12.35 13.52 0 7.73 5.63 13.36 12.35 13.36 6.63 0 11.84-5.63 11.84-13.36z"/><path fill="#34A853" d="M225 3v65h-9.5V3h9.5z"/><path fill="#EA4335" d="M262.02 54.48l7.56 5.04c-2.44 3.61-8.32 9.83-18.48 9.83-12.6 0-22.01-9.74-22.01-22.18 0-13.19 9.49-22.18 20.92-22.18 11.51 0 17.14 9.16 18.98 14.11l1.01 2.52-29.65 12.28c2.27 4.45 5.8 6.72 10.75 6.72 4.96 0 8.4-2.44 10.92-6.14zm-23.27-7.98l19.82-8.23c-1.09-2.77-4.37-4.7-8.23-4.7-4.95 0-11.84 4.37-11.59 12.93z"/><path fill="#4285F4" d="M35.29 41.41V32H67c.31 1.64.47 3.58.47 5.68 0 7.06-1.93 15.79-8.15 22.01-6.05 6.3-13.78 9.66-24.02 9.66C16.32 69.35.36 53.89.36 34.91.36 15.93 16.32.47 35.3.47c10.5 0 17.98 4.12 23.6 9.49l-6.64 6.64c-4.03-3.78-9.49-6.72-16.97-6.72-13.86 0-24.7 11.17-24.7 25.03 0 13.86 10.84 25.03 24.7 25.03 8.99 0 14.11-3.61 17.39-6.89 2.66-2.66 4.41-6.46 5.1-11.65l-22.49.01z"/>
</symbol>

<!-- stars-google-->
<symbol id="stars-google" viewBox="0 0 312 92">
<svg width="303" height="70" viewBox="0 0 303 70" fill="none" xmlns="http://www.w3.org/2000/svg">
<path d="M21.6958 12.7082C22.8932 9.02296 28.1068 9.02296 29.3042 12.7082L32.3477 22.075C32.8832 23.7231 34.419 24.8389 36.1519 24.8389H46.0007C49.8756 24.8389 51.4867 29.7974 48.3519 32.075L40.384 37.864C38.982 38.8825 38.3954 40.688 38.9309 42.3361L41.9744 51.7029C43.1718 55.3881 38.9538 58.4526 35.819 56.175L27.8511 50.386C26.4492 49.3675 24.5508 49.3675 23.1489 50.386L15.181 56.175C12.0461 58.4526 7.82823 55.3881 9.02563 51.7029L12.0691 42.3361C12.6046 40.688 12.0179 38.8825 10.616 37.864L2.64814 32.075C-0.486716 29.7974 1.12439 24.8389 4.99928 24.8389H14.8481C16.581 24.8389 18.1168 23.7231 18.6523 22.075L21.6958 12.7082Z" fill="#FFCA08"/>
<path d="M79.2011 12.5249C80.4087 8.8612 85.5913 8.8612 86.7989 12.5249L89.9523 22.0912C90.4928 23.731 92.0245 24.8389 93.7512 24.8389H103.832C107.721 24.8389 109.322 29.8267 106.161 32.091L98.1049 37.8603C96.6827 38.8788 96.0873 40.7032 96.6349 42.3645L99.7353 51.7702C100.947 55.4453 96.7534 58.5275 93.6074 56.2744L85.329 50.3458C83.9365 49.3485 82.0635 49.3485 80.671 50.3458L72.3926 56.2744C69.2466 58.5275 65.0533 55.4453 66.2647 51.7702L69.3651 42.3645C69.9127 40.7032 69.3173 38.8788 67.8951 37.8603L59.8393 32.091C56.6776 29.8267 58.2794 24.8389 62.1683 24.8389H72.2488C73.9755 24.8389 75.5072 23.731 76.0478 22.0912L79.2011 12.5249Z" fill="#FFCA08"/>
<path d="M138.696 12.7082C139.893 9.02296 145.107 9.02296 146.304 12.7082L149.348 22.075C149.883 23.7231 151.419 24.8389 153.152 24.8389H163.001C166.876 24.8389 168.487 29.7974 165.352 32.075L157.384 37.864C155.982 38.8825 155.395 40.688 155.931 42.3361L158.974 51.7029C160.172 55.3881 155.954 58.4526 152.819 56.175L144.851 50.386C143.449 49.3675 141.551 49.3675 140.149 50.386L132.181 56.175C129.046 58.4526 124.828 55.3881 126.026 51.7029L129.069 42.3361C129.605 40.688 129.018 38.8825 127.616 37.864L119.648 32.075C116.513 29.7974 118.124 24.8389 121.999 24.8389H131.848C133.581 24.8389 135.117 23.7231 135.652 22.075L138.696 12.7082Z" fill="#FFCA08"/>
<path d="M202.696 12.7082C203.893 9.02296 209.107 9.02296 210.304 12.7082L213.348 22.075C213.883 23.7231 215.419 24.8389 217.152 24.8389H227.001C230.876 24.8389 232.487 29.7974 229.352 32.075L221.384 37.864C219.982 38.8825 219.395 40.688 219.931 42.3361L222.974 51.7029C224.172 55.3881 219.954 58.4526 216.819 56.175L208.851 50.386C207.449 49.3675 205.551 49.3675 204.149 50.386L196.181 56.175C193.046 58.4526 188.828 55.3881 190.026 51.7029L193.069 42.3361C193.605 40.688 193.018 38.8825 191.616 37.864L183.648 32.075C180.513 29.7974 182.124 24.8389 185.999 24.8389H195.848C197.581 24.8389 199.117 23.7231 199.652 22.075L202.696 12.7082Z" fill="#FFCA08"/>
<path d="M264.529 12.3747C265.726 8.68946 270.94 8.68946 272.137 12.3747L275.218 21.8567C275.754 23.5047 277.29 24.6206 279.022 24.6206H288.992C292.867 24.6206 294.478 29.579 291.344 31.8567L283.278 37.7168C281.876 38.7354 281.289 40.5409 281.825 42.1889L284.906 51.6709C286.103 55.3561 281.885 58.4206 278.75 56.143L270.684 50.2829C269.282 49.2643 267.384 49.2643 265.982 50.2829L257.916 56.143C254.781 58.4206 250.563 55.3561 251.761 51.6709L254.842 42.1889C255.377 40.5409 254.791 38.7354 253.389 37.7168L245.323 31.8566C242.188 29.579 243.799 24.6206 247.674 24.6206H257.644C259.377 24.6206 260.913 23.5047 261.448 21.8567L264.529 12.3747Z" fill="#C4C4C4"/>
<path fill-rule="evenodd" clip-rule="evenodd" d="M268.974 9.74974C267.119 9.35462 265.01 10.2456 264.303 12.4226L261.222 21.9046C260.686 23.5527 259.15 24.6685 257.418 24.6685H247.448C243.573 24.6685 241.962 29.627 245.096 31.9046L253.162 37.7647C254.564 38.7833 255.151 40.5888 254.615 42.2369L251.535 51.7188C250.337 55.4041 254.555 58.4686 257.69 56.191L265.756 50.3308C266.704 49.6421 267.879 49.419 268.974 49.6617V9.74974Z" fill="#FFCA08"/>
</svg>
</symbol>

<!--icon baixo-->

<symbol id="icon-baixo" viewBox="0 0 105 49">
<path d="M88.4446 13.8762H104.945C101.444 3.74265 76.4443 0.37615 71.4446 0.37615C59.4443 -0.127763 47.9443 -0.122998 32.9446 0.37615C11.9443 1.37695 0.944336 8.37615 0.444583 12.8762C0.444583 12.8762 -0.555729 12.8761 0.444583 18.8761C4.99004 31.3761 32.9446 31.3762 32.9446 31.3762C39.9563 31.6321 56.2336 31.5466 71.4446 30.3762C92.5821 28.7496 102.611 21.7095 104.945 17.3761H88.4446C87.4443 20.3761 52.4446 20.3761 52.4446 20.3761C52.4446 20.3761 13.9443 20.3762 13.9446 15.3762C13.9448 10.3762 41.2446 8.87615 52.4446 8.87615C63.2403 8.15441 87.4443 10.8762 88.4446 13.8762Z" />
</symbol>

<symbol id="icon-medio" viewBox="0 0 105 49">
<rect x="19" y="18" width="69" height="8" rx="1" fill="#FFCACB"/>
<path d="M34 11.1139C42 10.114 51.5986 10.4387 66 11.1139C80.0261 11.7715 88.2513 15.8681 90.8147 18.4227L105 18.6139C96.5274 7.1001 80.3598 1.56967 66 0.613898C51.6402 -0.341869 42.2588 -0.0549153 34 0.613898C34 0.613898 0 4.1139 0 21.6139C0 39.1139 34 43.1139 34 43.1139C36.0604 43.7494 51.9336 43.8148 66 43.1139C80.0664 42.413 99.1264 37.5144 105 26.1139H91C86.484 29.9596 81.2176 31.2098 66 31.6139C51.8883 32.2261 44.8166 32.0463 34 30.6139C27.3333 29.2806 14 27.1139 14 21.6139C14 16.1139 26 12.1138 34 11.1139Z" fill="#FFCACB"/>
</symbol>

<symbol id="icon-medio-alto" viewBox="0 0 105 49">
<path d="M27.6608 0.376553C8.86083 0.376553 1.49416 12.0432 0.160831 17.8766C-0.045127 22.341 -0.199136 24.797 0.660831 30.3765C6.33352 46.3991 20.1608 46.8765 27.6608 47.8765C36.1608 48.4172 55.2608 49.4765 77.6608 47.8765C100.061 46.2765 106.661 33.2098 107.161 26.8765H94.6608C93.0608 35.2765 82.6608 37.3765 77.6608 37.3765H27.6608C15.6608 36.5765 13.3228 32.8762 11.6608 28.8765C11.016 27.7177 10.4918 23.8884 11.6608 17.8766C12.8087 11.9739 22.4942 9.70986 27.6608 9.37648C46.2381 8.69767 56.1178 7.93567 77.6608 9.37648C88.0608 10.1765 93.3275 16.3765 94.6608 19.3765H107.161C104.361 7.77648 89.9942 1.87653 83.1608 0.376553C73.0812 0.118286 48.6799 -0.323021 27.6608 0.376553Z" fill="#FFCACB"/>
<rect x="16" y="14" width="72" height="8" rx="1" fill="#FFCACB"/>
<rect x="16" y="25" width="72" height="8" rx="1" fill="#FFCACB"/>
</symbol>

<symbol id="icon-alto" viewBox="0 0 105 49">
<rect x="16" y="18" width="72" height="8" rx="1" fill="#FFCACB"/>
<rect x="16" y="29" width="72" height="8" rx="1" fill="#FFCACB"/>
<rect x="16" y="40" width="72" height="8" rx="1" fill="#FFCACB"/>
<path d="M68.3511 12.1626C85.0925 13.565 92.3512 20.4959 93.8512 24.6626C97.3506 24.6626 100.351 24.1626 103.851 24.6626C103.851 14.1626 93.9537 3.46254 68.3511 0.662582C64.3512 0.162582 51.0514 -0.537418 29.8511 0.662582C1.85059 4.1626 0.351634 22.6626 0.351403 26.6626C0.351403 26.6626 -0.439253 27.4993 0.351403 40.1626C1.85131 54.1626 16.3513 62.6626 29.3511 63.6626H68.3511C100.769 61.6741 102.851 45.6626 103.851 34.1626H93.8512C91.3506 46.1626 87.8506 50.6626 68.3511 51.6626C61.0178 51.9959 42.9511 52.4626 29.3511 51.6626C9.35139 50.1626 10.8511 40.1626 11.3511 26.6626C11.7511 15.8626 23.8506 13.228 29.8511 12.1626C37.1275 11.0519 53.59 10.926 68.3511 12.1626Z" fill="#FFCACB"/>
</symbol>

<!--logo-->
<symbol id="logo" viewBox="0 0 250 60">
<path d="M11.2072 59.322H0V8.89831C0 2.9661 2.88671 0 8.66014 0H38.631C43.9516 0 47.744 1.58192 50.0081 4.74576C52.3288 7.85311 53.4891 12.5141 53.4891 18.7288C53.4891 31.9492 48.9043 38.5593 39.7348 38.5593H33.7915V38.9831L54.6778 59.322H40.2442L21.056 40.0847C19.1882 38.1073 18.2542 36.4407 18.2542 35.0847V33.7288C18.2542 32.4859 18.6787 31.4972 19.5278 30.7627C20.4334 30.0282 21.6787 29.661 23.2635 29.661H34.8104C37.6971 29.661 39.5933 28.7853 40.4989 27.0339C41.4611 25.2825 41.9422 22.5141 41.9422 18.7288C41.9422 15.113 41.3762 12.5706 40.2442 11.1017C39.1687 9.63277 36.933 8.89831 33.5368 8.89831H15.4524C13.7543 8.89831 12.6223 9.18079 12.0563 9.74576C11.4903 10.3107 11.2072 11.4407 11.2072 13.1356V59.322Z" fill="white"/>
<path d="M68.0394 0L85.7842 47.8814C85.7842 47.9379 85.8408 48.0791 85.954 48.3051C86.0672 48.4746 86.1521 48.6158 86.2087 48.7288C86.3219 48.7853 86.4351 48.8701 86.5483 48.9831C86.7181 49.096 86.8879 49.1525 87.0578 49.1525C87.2276 49.1525 87.3691 49.096 87.4823 48.9831C87.6521 48.8701 87.7653 48.7853 87.8219 48.7288C87.9351 48.6158 88.0483 48.4746 88.1615 48.3051C88.2747 48.0791 88.3313 47.9379 88.3313 47.8814L106.076 0H118.217L96.6518 53.5593C94.9538 57.8531 91.7557 60 87.0578 60C82.3598 60 79.1618 57.8531 77.4637 53.5593L55.8982 0H68.0394Z" fill="white"/>
<path d="M133.173 59.322H121.966V8.89831C121.966 2.9661 124.852 0 130.626 0H169.257V8.89831H137.418C135.72 8.89831 134.588 9.18079 134.022 9.74576C133.456 10.3107 133.173 11.4407 133.173 13.1356V24.9153H159.493V33.8136H133.173V59.322Z" fill="white"/>
<path d="M186.403 59.322H175.196V0H186.403V59.322Z" fill="white"/>
<path d="M225.879 59.322H214.672V8.89831H191.493V0H249.143V8.89831H225.879V59.322Z" fill="white"/>
</symbol>

</defs>
</svg>