<svg width="108" height="49" viewBox="0 0 108 49" fill="none" xmlns="http://www.w3.org/2000/svg">
<path d="M27.6608 0.376553C8.86083 0.376553 1.49416 12.0432 0.160831 17.8766C-0.045127 22.341 -0.199136 24.797 0.660831 30.3765C6.33352 46.3991 20.1608 46.8765 27.6608 47.8765C36.1608 48.4172 55.2608 49.4765 77.6608 47.8765C100.061 46.2765 106.661 33.2098 107.161 26.8765H94.6608C93.0608 35.2765 82.6608 37.3765 77.6608 37.3765H27.6608C15.6608 36.5765 13.3228 32.8762 11.6608 28.8765C11.016 27.7177 10.4918 23.8884 11.6608 17.8766C12.8087 11.9739 22.4942 9.70986 27.6608 9.37648C46.2381 8.69767 56.1178 7.93567 77.6608 9.37648C88.0608 10.1765 93.3275 16.3765 94.6608 19.3765H107.161C104.361 7.77648 89.9942 1.87653 83.1608 0.376553C73.0812 0.118286 48.6799 -0.323021 27.6608 0.376553Z" fill="#FFCACB"/>
<rect x="16" y="14" width="72" height="8" rx="1" fill="#FFCACB"/>
<rect x="16" y="25" width="72" height="8" rx="1" fill="#FFCACB"/>
</svg>
