<svg width="105" height="44" viewBox="0 0 105 44" fill="none" xmlns="http://www.w3.org/2000/svg">
<rect x="19" y="18" width="69" height="8" rx="1" fill="#FFCACB"/>
<path d="M34 11.1139C42 10.114 51.5986 10.4387 66 11.1139C80.0261 11.7715 88.2513 15.8681 90.8147 18.4227L105 18.6139C96.5274 7.1001 80.3598 1.56967 66 0.613898C51.6402 -0.341869 42.2588 -0.0549153 34 0.613898C34 0.613898 0 4.1139 0 21.6139C0 39.1139 34 43.1139 34 43.1139C36.0604 43.7494 51.9336 43.8148 66 43.1139C80.0664 42.413 99.1264 37.5144 105 26.1139H91C86.484 29.9596 81.2176 31.2098 66 31.6139C51.8883 32.2261 44.8166 32.0463 34 30.6139C27.3333 29.2806 14 27.1139 14 21.6139C14 16.1139 26 12.1138 34 11.1139Z" fill="#FFCACB"/>
</svg>
